# xmcd CD database file
# 
# Track frame offsets:
# 	150
# 	14000
# 	35350
# 	47625
# 	63375
# 	79575
# 	90800
# 	107000
# 	125125
# 	152875
# 	172875
# 	186925
# 	204700
# 	224550
# 	237850
# 	252075
# 	273075
# 	285275
# 
# Disc length: 4009 seconds
# 
# Submitted via: Nero 5.5.9.0
# 
# Revision: 0
# Processed by: cddbd v1.4PL0 Copyright (c) Steve Scherf et al.
#
DISCID=f30fa712
DTITLE=Tommy Alverson - Texasongs
DYEAR=1900
DGENRE=
TTITLE0=I Can't Afford To Fall In Love
TTITLE1=After Love
TTITLE2=Two More Like You
TTITLE3=What's The Matter With My Baby
TTITLE4=I Can't Help Myself Darlin'
TTITLE5=Movin' On
TTITLE6=Texas Woman
TTITLE7=Back Before The War
TTITLE8=Purty Boys
TTITLE9=Second Hand Love
TTITLE10=My Old Hat
TTITLE11=How Good A Bad Woman Feels
TTITLE12=House Of Broken Hearts
TTITLE13=Two Of A Kind
TTITLE14=Make You Mine
TTITLE15=Pickin' And Grinnin'
TTITLE16=This Bottle
TTITLE17=Always In My Heart
EXTD=
EXTT0=
EXTT1=
EXTT2=
EXTT3=
EXTT4=
EXTT5=
EXTT6=
EXTT7=
EXTT8=
EXTT9=
EXTT10=
EXTT11=
EXTT12=
EXTT13=
EXTT14=
EXTT15=
EXTT16=
EXTT17=
PLAYORDER=
